<svg width="214" height="40" viewBox="0 0 214 40" fill="none" xmlns="http://www.w3.org/2000/svg">
<g clip-path="url(#clip0_12_41)">
<path d="M0.450012 32.7C0.450012 23.4 0.450012 14.2 0.450012 4.9C0.450012 4.8 0.550012 4.7 0.550012 4.6C0.850012 2.7 1.85001 1.3 3.55001 0.5C4.05001 0.3 4.75001 0.2 5.35001 0C14.45 0 23.55 0 32.75 0C32.85 0 32.85 0.1 32.95 0.1C34.85 0.4 36.25 1.5 37.05 3.3C37.25 3.8 37.35 4.4 37.55 5C37.55 14.3 37.55 23.5 37.55 32.8C37.55 32.9 37.45 33 37.45 33.1C37.15 35 36.15 36.4 34.45 37.2C33.85 37.5 33.25 37.6 32.65 37.8C29.55 37.8 26.45 37.8 23.25 37.8C23.25 33.4 23.25 28.9 23.25 24.5C25.15 24.5 26.95 24.5 28.75 24.5C29.15 22.3 29.45 20.1 29.85 17.9C27.65 17.9 25.45 17.9 23.25 17.9C23.25 16.4 23.25 14.9 23.25 13.4C25.45 13.4 27.65 13.4 29.85 13.4C29.85 11.2 29.85 9 29.85 6.8C27.65 6.8 25.55 6.8 23.45 6.8C19.65 6.8 16.85 9.7 16.75 13.5C16.75 14.8 16.75 16.1 16.75 17.4C16.75 17.5 16.75 17.7 16.75 17.8C15.25 17.8 13.85 17.8 12.45 17.8C12.45 20 12.45 22.2 12.45 24.4C13.85 24.4 15.35 24.4 16.75 24.4C16.75 28.9 16.75 33.3 16.75 37.7C12.95 37.7 9.05001 37.7 5.25001 37.7C5.15001 37.7 5.15001 37.6 5.05001 37.6C3.15001 37.3 1.75001 36.2 0.950012 34.4C0.750012 33.9 0.650012 33.3 0.450012 32.7Z" fill="#646363"/>
<path d="M155.25 10C155.25 16.7 155.25 23.3 155.25 30C155.25 30.1 155.15 30.2 155.15 30.3C154.55 34.6 152.15 37.4 148.15 38.9C147.45 39.2 146.65 39.2 145.85 39.4C139.15 39.4 132.55 39.4 125.85 39.4C125.75 39.4 125.65 39.3 125.55 39.3C121.25 38.7 118.35 36.4 116.95 32.3C116.65 31.6 116.65 30.8 116.45 30C116.45 23.3 116.45 16.7 116.45 10C116.45 9.9 116.55 9.8 116.55 9.6C116.95 5.7 119.85 2.1 123.65 1C124.35 0.8 125.05 0.7 125.85 0.5C132.55 0.5 139.15 0.5 145.85 0.5C145.95 0.5 146.05 0.6 146.15 0.6C150.35 1.2 153.25 3.5 154.65 7.5C154.95 8.4 155.05 9.2 155.25 10ZM148.45 20C148.45 18.1 148.45 16.2 148.45 14.4C148.45 10.5 145.45 7.5 141.55 7.5C137.75 7.5 134.05 7.5 130.25 7.5C129.85 7.5 129.35 7.5 128.95 7.6C125.65 8.3 123.35 11 123.35 14.4C123.35 18.1 123.35 21.9 123.35 25.6C123.35 29.6 126.35 32.6 130.35 32.6C134.05 32.6 137.85 32.6 141.55 32.6C145.55 32.6 148.55 29.6 148.55 25.6C148.45 23.7 148.45 21.9 148.45 20Z" fill="#646363"/>
<path d="M146.15 19.9998C146.15 21.8998 146.15 23.7998 146.15 25.5998C146.15 28.2998 144.15 30.2998 141.45 30.2998C137.65 30.2998 133.95 30.2998 130.15 30.2998C127.45 30.2998 125.55 28.2998 125.55 25.6998C125.55 21.8998 125.55 18.1998 125.55 14.3998C125.55 11.7998 127.55 9.7998 130.15 9.7998C133.95 9.7998 137.65 9.7998 141.45 9.7998C144.05 9.7998 146.05 11.7998 146.05 14.3998C146.15 16.1998 146.15 18.0998 146.15 19.9998ZM130.15 19.9998C130.15 23.0998 132.65 25.6998 135.85 25.6998C138.95 25.6998 141.55 23.1998 141.55 19.9998C141.55 16.8998 139.05 14.2998 135.85 14.2998C132.75 14.2998 130.25 16.8998 130.15 19.9998ZM143.55 13.4998C143.55 12.8998 143.05 12.3998 142.45 12.3998C141.85 12.3998 141.35 12.8998 141.25 13.4998C141.25 14.0998 141.75 14.6998 142.35 14.6998C142.95 14.5998 143.55 14.0998 143.55 13.4998Z" fill="#646363"/>
<path d="M135.85 16.6001C137.75 16.6001 139.25 18.1001 139.25 20.0001C139.25 21.9001 137.75 23.4001 135.85 23.4001C133.95 23.4001 132.45 21.9001 132.45 20.0001C132.45 18.1001 133.95 16.6001 135.85 16.6001Z" fill="#646363"/>
<path d="M57.85 31.5999C57.85 23.2999 57.85 14.9999 57.85 6.6999C57.85 6.5999 57.95 6.4999 57.95 6.4999C58.35 3.6999 60.45 1.2999 63.25 0.599902C63.55 0.499902 63.85 0.499902 64.25 0.399902C72.55 0.399902 80.85 0.399902 89.15 0.399902C89.25 0.399902 89.25 0.499902 89.35 0.499902C92.45 0.799902 95.55 3.6999 95.45 7.4999C95.45 15.2999 95.45 23.0999 95.45 30.8999C95.45 31.8999 95.25 32.8999 94.85 33.7999C93.45 36.4999 91.35 37.9999 88.25 37.9999C82.05 37.9999 75.95 37.9999 69.75 37.9999C68.05 37.9999 66.35 37.9999 64.65 37.9999C61.55 37.8999 58.75 35.6999 58.05 32.6999C57.95 32.1999 57.85 31.8999 57.85 31.5999ZM86.45 12.9999C86.45 12.9999 86.45 12.8999 86.35 12.8999C87.35 12.1999 88.05 11.3999 88.45 10.1999C87.45 10.7999 86.45 11.1999 85.45 11.3999C85.35 11.3999 85.15 11.3999 85.05 11.2999C84.25 10.4999 83.25 9.9999 82.15 9.8999C79.55 9.4999 76.85 11.4999 76.45 14.0999C76.35 14.7999 76.45 15.4999 76.45 16.1999C72.15 15.8999 68.65 14.0999 65.85 10.7999C64.65 13.4999 64.95 15.7999 67.25 17.6999C67.25 17.6999 67.25 17.7999 67.15 17.7999C66.45 17.5999 65.65 17.3999 64.85 17.1999C65.05 19.7999 66.45 21.3999 68.95 22.1999V22.2999C68.25 22.2999 67.65 22.2999 66.95 22.2999C67.85 24.4999 69.35 25.6999 71.75 25.8999C69.55 27.5999 67.05 28.2999 64.25 27.9999C64.35 28.0999 64.35 28.0999 64.35 28.0999C65.55 28.7999 66.75 29.3999 68.05 29.6999C70.05 30.2999 72.05 30.3999 74.15 30.0999C76.75 29.6999 79.25 28.7999 81.25 26.9999C84.85 23.8999 86.65 19.9999 86.65 15.1999C86.65 15.0999 86.75 14.8999 86.85 14.7999C87.25 14.4999 87.65 14.1999 87.95 13.7999C88.35 13.3999 88.75 12.8999 89.15 12.3999C89.15 12.3999 89.15 12.3999 89.05 12.3999C88.15 12.4999 87.25 12.6999 86.45 12.9999Z" fill="#646363"/>
<path d="M176.05 34.1001C176.05 24.5001 176.05 14.9001 176.05 5.2001C176.05 5.1001 176.15 5.0001 176.15 4.9001C176.45 3.2001 177.45 1.9001 178.95 1.1001C179.45 0.900098 180.05 0.700098 180.55 0.600098C190.05 0.600098 199.55 0.600098 209.05 0.600098C209.15 0.600098 209.15 0.700098 209.25 0.700098C211.35 1.1001 212.75 2.4001 213.45 4.5001C213.55 4.8001 213.55 5.0001 213.65 5.3001C213.65 14.9001 213.65 24.5001 213.65 34.2001C213.65 34.3001 213.55 34.4001 213.55 34.5001C213.15 36.6001 211.95 38.0001 209.95 38.6001C209.65 38.7001 209.35 38.7001 209.15 38.8001C199.65 38.8001 190.15 38.8001 180.65 38.8001C180.55 38.8001 180.55 38.7001 180.45 38.7001C178.35 38.3001 176.95 37.0001 176.25 34.9001C176.15 34.6001 176.05 34.3001 176.05 34.1001ZM196.05 17.4001C196.05 17.0001 196.05 16.7001 196.05 16.4001C196.05 15.8001 195.75 15.5001 195.15 15.5001C194.05 15.5001 192.95 15.5001 191.95 15.5001C191.35 15.5001 191.05 15.8001 191.05 16.4001C191.05 21.1001 191.05 25.8001 191.05 30.6001C191.05 31.2001 191.35 31.5001 191.95 31.5001C192.95 31.5001 193.95 31.5001 194.95 31.5001C195.75 31.5001 195.95 31.3001 195.95 30.4001C195.95 28.0001 195.95 25.6001 195.95 23.3001C195.95 22.4001 196.15 21.6001 196.65 20.8001C197.25 19.8001 198.15 19.5001 199.25 19.7001C200.25 19.8001 200.85 20.4001 201.15 21.4001C201.35 22.2001 201.45 23.0001 201.45 23.8001C201.45 26.1001 201.45 28.4001 201.45 30.7001C201.45 31.3001 201.75 31.6001 202.35 31.6001C203.45 31.6001 204.55 31.6001 205.65 31.6001C206.25 31.6001 206.55 31.3001 206.55 30.7001C206.55 28.1001 206.55 25.5001 206.55 22.9001C206.55 21.8001 206.45 20.7001 206.15 19.7001C205.85 18.2001 205.15 17.0001 203.85 16.2001C202.45 15.4001 200.85 15.4001 199.25 15.6001C197.95 15.8001 196.95 16.4001 196.25 17.5001C196.15 17.4001 196.05 17.4001 196.05 17.4001ZM183.85 23.5001C183.85 25.9001 183.85 28.2001 183.85 30.6001C183.85 31.2001 184.15 31.5001 184.75 31.5001C185.75 31.5001 186.85 31.5001 187.85 31.5001C188.55 31.5001 188.85 31.2001 188.85 30.6001C188.85 25.9001 188.85 21.2001 188.85 16.5001C188.85 15.8001 188.55 15.6001 187.95 15.5001C186.95 15.5001 185.95 15.5001 184.95 15.5001C184.25 15.5001 183.95 15.8001 183.95 16.5001C183.85 18.9001 183.85 21.2001 183.85 23.5001ZM189.55 11.0001C189.55 9.2001 188.15 7.8001 186.45 7.7001C184.65 7.7001 183.15 9.1001 183.15 10.9001C183.15 12.7001 184.55 14.2001 186.35 14.2001C188.05 14.2001 189.55 12.8001 189.55 11.0001Z" fill="#646363"/>
</g>
<defs>
<clipPath id="clip0_12_41">
<rect width="213.1" height="39.4" fill="white" transform="translate(0.450012)"/>
</clipPath>
</defs>
</svg>
