<svg width="21" height="18" viewBox="0 0 21 18" fill="none" xmlns="http://www.w3.org/2000/svg">
<g clip-path="url(#clip0_11_85)">
<path d="M20.661 9.30229C20.5507 9.71785 20.2933 9.98229 19.9992 10.2845C17.7565 12.5512 15.5507 14.8556 13.308 17.1601C12.9036 17.5756 12.3889 17.6512 11.911 17.4623C11.433 17.2356 11.1389 16.7445 11.1757 16.2156C11.1757 15.8756 11.3227 15.5734 11.5801 15.3467C13.1242 13.7601 14.6683 12.1734 16.2124 10.5867C16.2492 10.549 16.3227 10.5112 16.3962 10.4356C16.3962 10.3978 16.3962 10.3978 16.3595 10.3601C16.286 10.3601 16.2124 10.3601 16.1389 10.3601C11.433 10.3601 6.72713 10.3601 2.02125 10.3601C1.46977 10.3601 1.06536 10.1334 0.80801 9.64229C0.73448 9.52896 0.73448 9.41562 0.697716 9.30229C0.697716 9.15118 0.697716 9.03785 0.697716 8.88674C0.697716 8.84896 0.73448 8.7734 0.73448 8.73563C0.918304 8.16896 1.35948 7.79118 1.94772 7.79118C2.71977 7.79118 3.45507 7.79118 4.22713 7.79118C8.19772 7.79118 12.1683 7.79118 16.1389 7.79118C16.2124 7.79118 16.286 7.79118 16.3595 7.79118L16.3962 7.7534C16.3227 7.67785 16.2492 7.64007 16.1757 7.56451C14.5948 5.97785 13.0139 4.3534 11.4698 2.76674C10.7712 2.04896 11.0286 0.877848 11.9477 0.575625C12.4624 0.424514 12.9036 0.537848 13.2712 0.953403C14.1904 1.89785 15.0727 2.80451 15.9918 3.74896C17.3889 5.18451 18.8227 6.65785 20.2198 8.0934C20.4404 8.32007 20.5507 8.54674 20.661 8.84896C20.661 8.96229 20.661 9.1134 20.661 9.30229Z" fill="white"/>
</g>
<defs>
<clipPath id="clip0_11_85">
<rect width="20" height="17" fill="white" transform="translate(0.66095 0.5)"/>
</clipPath>
</defs>
</svg>
