<svg width="21" height="18" viewBox="0 0 21 18" fill="none" xmlns="http://www.w3.org/2000/svg">
<path d="M20.661 9.26498C20.5507 9.68054 20.2933 9.94498 19.9992 10.2472C17.7565 12.5139 15.5507 14.8183 13.308 17.1228C12.9036 17.5383 12.3889 17.6139 11.911 17.425C11.433 17.1983 11.1389 16.7072 11.1757 16.1783C11.1757 15.8383 11.3227 15.5361 11.5801 15.3094C13.1242 13.7228 14.6683 12.1361 16.2124 10.5494C16.2492 10.5117 16.3227 10.4739 16.3962 10.3983C16.3962 10.3605 16.3962 10.3605 16.3595 10.3228C16.286 10.3228 16.2124 10.3228 16.1389 10.3228C11.433 10.3228 6.72713 10.3228 2.02125 10.3228C1.46977 10.3228 1.06536 10.0961 0.80801 9.60498C0.73448 9.49165 0.73448 9.37832 0.697716 9.26498C0.697716 9.11387 0.697716 9.00054 0.697716 8.84943C0.697716 8.81165 0.73448 8.7361 0.73448 8.69832C0.918304 8.13165 1.35948 7.75387 1.94772 7.75387C2.71977 7.75387 3.45507 7.75387 4.22713 7.75387C8.19772 7.75387 12.1683 7.75387 16.1389 7.75387C16.2124 7.75387 16.286 7.75387 16.3595 7.75387L16.3962 7.7161C16.3227 7.64054 16.2492 7.60276 16.1757 7.52721C14.5948 5.94054 13.0139 4.3161 11.4698 2.72943C10.7712 2.01165 11.0286 0.84054 11.9477 0.538318C12.4624 0.387207 12.9036 0.50054 13.2712 0.916096C14.1904 1.86054 15.0727 2.76721 15.9918 3.71165C17.3889 5.14721 18.8227 6.62054 20.2198 8.0561C20.4404 8.28276 20.5507 8.50943 20.661 8.81165C20.661 8.92498 20.661 9.07609 20.661 9.26498Z" fill="white"/>
</svg>
